<svg id="Layer_1" data-name="Layer 1" xmlns="http://www.w3.org/2000/svg" xmlns:xlink="http://www.w3.org/1999/xlink" viewBox="0 0 989.92 675.88"><defs><linearGradient id="linear-gradient" x1="271.9" y1="59.02" x2="590.65" y2="498.3" gradientTransform="matrix(1, 0, 0, -1, -3.57, 445.4)" gradientUnits="userSpaceOnUse"><stop offset="0" stop-color="#b27b3a"/><stop offset="0.51" stop-color="#fedd8e"/><stop offset="1" stop-color="#6c4b23"/></linearGradient><linearGradient id="linear-gradient-2" x1="283.67" y1="50.48" x2="602.42" y2="489.76" xlink:href="#linear-gradient"/><linearGradient id="linear-gradient-3" x1="314.39" y1="28.19" x2="633.14" y2="467.47" xlink:href="#linear-gradient"/><linearGradient id="linear-gradient-4" x1="384.62" y1="-22.77" x2="703.37" y2="416.51" xlink:href="#linear-gradient"/><linearGradient id="linear-gradient-5" x1="351.78" y1="1.06" x2="670.53" y2="440.34" gradientTransform="matrix(1, 0, 0, -1, 0, 451.36)" xlink:href="#linear-gradient"/><linearGradient id="linear-gradient-6" x1="352.31" y1="0.68" x2="671.06" y2="439.95" gradientTransform="matrix(1, 0, 0, -1, 0, 451.36)" xlink:href="#linear-gradient"/><linearGradient id="linear-gradient-7" x1="351.83" y1="1.03" x2="670.58" y2="440.3" gradientTransform="matrix(1, 0, 0, -1, 0, 451.36)" xlink:href="#linear-gradient"/></defs><polygon points="396.36 289.84 396.36 145.35 376.95 156.78 376.95 289.84 396.36 289.84" fill="url(#linear-gradient)"/><polygon points="417.86 289.84 417.86 132.57 402.26 141.79 402.26 289.84 417.86 289.84" fill="url(#linear-gradient-2)"/><polygon points="499.32 289.84 499.32 209.61 516.89 198.67 516.89 79.62 553.88 108.49 553.88 101.24 515.42 72.12 454.11 106.77 454.11 128.64 437.4 121.02 423.76 129.13 423.76 289.84 441.33 289.84 441.33 130.36 481.63 152.84 481.63 289.84 499.32 289.84" fill="url(#linear-gradient-3)"/><polygon points="571.2 185.16 613.34 210.34 613.34 202.97 571.2 176.56 506.57 211.45 506.57 289.84 571.2 289.84 571.2 185.16" fill="url(#linear-gradient-4)"/><path d="M498.6,29.18c-120.66,0-218.83,98.17-218.83,218.83S377.94,466.83,498.6,466.83c91.28,0,169.67-56.27,202.48-135.89H384.45a51,51,0,0,0,7.87,11.43H683c-1,2-2.09,3.93-3.2,5.89a210.67,210.67,0,0,1-34.89,46.2A207.12,207.12,0,1,1,498.47,40.86,207.17,207.17,0,0,1,705.13,234.12H716.8C709.8,120,614.58,29.18,498.6,29.18Z" transform="translate(-3.57 -5.96)" fill="url(#linear-gradient-5)"/><path d="M380.28,308.09A38.25,38.25,0,0,0,382,325.17H709.8c-.74,2-1.47,3.93-2.21,5.89a225.67,225.67,0,1,1,15.23-96.81h17.57c-3.19-62.42-31.57-122-77.52-164.27C619.74,30.41,562.73,7.07,504.13,6h-5.29A247.52,247.52,0,0,0,462,8.79c-2,.24-4.05.61-5.89,1-6.89,1.23-13.77,2.83-20.52,4.67-1.72.49-3.57,1-5.78,1.6a222.2,222.2,0,0,0-30.47,11.42c-1.84.86-3.56,1.6-5.28,2.46-6.15,2.95-12.17,6.27-18.06,9.71-1.6,1-3.32,2-5,3.07a26.35,26.35,0,0,0-2.46,1.6c-2,1.23-3.44,2.21-4.91,3.19l-2.46,1.6c-6.39,4.42-12.65,9.21-18.43,14.13-1.35,1.1-2.7,2.21-4.42,3.81-3.69,3.31-7.25,6.63-10.57,10A240.6,240.6,0,0,0,256.8,248.25,245.46,245.46,0,0,0,259,280.93l.25,2a235.43,235.43,0,0,0,8,35.75c1.6,5.29,3.32,10.45,5.16,15.36,0,.13.12.25.12.37a250.47,250.47,0,0,0,10.82,24.33l2.58,4.79c1.59,2.95,3.31,6.14,5.28,9.34V373c.86,1.48,1.84,3,2.83,4.55,2.08,3.31,4.05,6.14,5.89,9q4.62,6.63,9.59,12.9c1.23,1.47,2.45,2.95,3.31,4.05s1.85,2.21,2.83,3.32a2.88,2.88,0,0,1,.61.74c1.11,1.22,2.09,2.45,3.2,3.68l.37.37c2.58,2.83,4.91,5.28,7.37,7.74s4.79,4.67,7.62,7.37c1.1,1,2.45,2.34,3.93,3.57,2.7,2.33,5.4,4.66,8.23,6.88,1.35,1.1,2.83,2.21,4.18,3.31s2.82,2.09,4.3,3.2,2.82,2.09,4.18,3.07c.12.12.12.12.24.12,1.48,1,2.83,2,4.3,2.95l4.43,2.95c1.35.86,2.7,1.72,4.54,2.83l.37.24c1.47.86,2.83,1.72,4.18,2.46.24.12.37.24.61.37h.12c1.36.73,2.71,1.47,3.94,2.21a.42.42,0,0,0,.24.12c1.48.86,3.07,1.72,4.67,2.46s3.2,1.6,4.79,2.46,2.95,1.47,4.43,2.09l.24.12h.12l.13.12c1.23.62,2.58,1.23,4.17,2l2.83,1.23c1,.36,1.84.86,2.83,1.22,1.59.62,3.19,1.23,4.91,2a4.49,4.49,0,0,1,1.11.49c1.35.49,2.82,1,4.17,1.6s2.95,1,4.3,1.47l1.11.37c1.47.49,2.95,1,4.55,1.48h.36c1.48.49,2.95.86,4.67,1.35h.25a1.12,1.12,0,0,0,.61.12l.37.12c1.6.49,3.2.86,4.67,1.23,1.72.49,3.56.86,5.28,1.35l.5.13c1.59.36,3.07.73,4.66,1a.45.45,0,0,1,.37.12l.25.12c1.35.25,2.7.62,4.05.86l.37.13c.25,0,.37.12.62.12h.24c1.84.37,3.32.61,4.79.86h.13a3.44,3.44,0,0,0,1.1.12h.25c1.23.25,2.46.37,4.05.62h.25a1.12,1.12,0,0,1,.61.12c1.72.25,3.57.49,5.41.74,1.35.12,2.82.37,4.54.49a8.35,8.35,0,0,0,1.72.12h.37c1.23.12,2.46.25,3.69.25h0l1,.12c1.48.12,3.2.25,5.16.37h1c1.59.12,3.07.12,4.66.12h1.23c1.6,0,3.2.12,5.16.12h5.29c108.49-2.33,202.6-77.15,229.39-182.08H636.08C552.78,308.09,463.09,308.09,380.28,308.09Z" transform="translate(-3.57 -5.96)" fill="url(#linear-gradient-6)"/><path d="M498.6,46.88c-111,0-201.26,90.3-201.26,201.25S387.65,449.38,498.6,449.38a201.19,201.19,0,0,0,174.34-101H398.34a64.31,64.31,0,0,0,14.5,9.21c19.29,8.6,41.16,8.73,62.29,8.6,52.09-.24,111.31-.49,163.41-.86-39.44,47.06-103.94,71.88-164.76,63.4S357.67,378.86,332.61,322.83c-25.07-56.27-19.29-125.07,14.86-176.06s95.47-82.69,156.9-81a164.26,164.26,0,0,1,29,3.32,185.81,185.81,0,0,1,84.77,41.65C642,131.29,660.9,158,670.48,188.05a197.88,197.88,0,0,1,8.85,46.2h20.15C692.23,129.69,604.87,46.88,498.6,46.88Z" transform="translate(-3.57 -5.96)" fill="url(#linear-gradient-7)"/><path d="M50.26,570.9h50l.12,6.88c0,11.91-1.72,20.27-5.28,24.94s-11.18,7.12-23.22,7.12H39.57c-14.62,0-24.2-2.21-29-6.51s-7-13.76-7-28.13v-4.3c0-15,1.72-25.31,5.29-30.84S21,531.7,34.54,531.7L54,531.46l9.34-.13,15.35.62c7.38,0,12.66,1.84,15.73,5.53S99,546.94,99,554.68H89.82c0-6.76-1.47-10.94-4.3-12.53s-8.1-2.34-15.85-2.34L54,539.69l-9.09-.12-15.12.61c-5.89.49-9.95,1.6-12.41,3.32s-3.68,5.89-3.68,12.65l-.49,19.78c0,8.36.61,14.62,1.84,18.92s7.37,6.52,18.68,6.52l19.65.24,8.36.13h1.72a137,137,0,0,0,14-.86c5.77-.5,9.46-2.34,10.93-5.53s2.33-8.73,2.33-16.59H50.38V570.9Z" transform="translate(-3.57 -5.96)"/><path d="M116.49,608.86H105.55L151,532H163.3l45.83,76.91H198.44l-10.2-17.32h-61.8ZM131,583.92h52.71l-26.54-45.09Z" transform="translate(-3.57 -5.96)"/><path d="M287.76,608.86H217.6V532h9.34v69.17h60.82Z" transform="translate(-3.57 -5.96)"/><path d="M298.69,608.86H287.76L333.22,532h12.29l45.83,76.91H380.65l-10.2-17.32h-61.8Zm14.5-24.94H365.9l-26.54-45.09Z" transform="translate(-3.57 -5.96)"/><path d="M485.57,532l-39.93,36.49,44.48,40.42h-14l-37.35-34.15-37.23,34.15h-14l44.35-40.42L391.83,532h13.63l33.18,30.1L471.69,532Z" transform="translate(-3.57 -5.96)"/><path d="M584.36,532,540,576.18v32.68h-9.34V576.18l-44.23-44.11H499.7l35.63,36.12L571.09,532Z" transform="translate(-3.57 -5.96)"/><path d="M695.43,565.24V573H630.92v28.14h67.7v7.74h-77V532h76.18v7.86H630.92v25.43Z" transform="translate(-3.57 -5.96)"/><path d="M787.21,608.86H717.05V532h9.34v69.17h60.82Z" transform="translate(-3.57 -5.96)"/><path d="M809.57,608.86h-9.34V532h9.34Z" transform="translate(-3.57 -5.96)"/><path d="M858.22,608.86V539.81h-38.7V532h87v7.86h-39v69.05Z" transform="translate(-3.57 -5.96)"/><path d="M990.3,565.24V573H925.8v28.14h67.7v7.74h-77V532h76.18v7.86H925.8v25.43Z" transform="translate(-3.57 -5.96)"/><path d="M263.43,654.81c0,3.44-.49,5.78-1.47,7.13s-3.2,2.21-6.64,2.7a13.25,13.25,0,0,1,5.66,1.85c1.22.86,1.84,2.58,1.84,4.91v10.44h-4.55v-8.6c0-2.82-.61-4.67-1.84-5.65s-3.32-1.35-6.27-1.35H224v15.48h-4.67V643.39h31.09c4.67,0,8,.73,10,2.33S263.43,650.27,263.43,654.81Zm-4.79-.37c0-2.94-.74-4.91-2.09-5.77s-3.81-1.35-7-1.35H224v15h25.68c3.32,0,5.65-.49,7-1.6S258.64,657.64,258.64,654.44Z" transform="translate(-3.57 -5.96)"/><path d="M317.37,660v3.81H285.3v14H319v3.81H280.63V643.26h38v3.94H285.3v12.65h32.07Z" transform="translate(-3.57 -5.96)"/><path d="M335.19,681.72h-5.41l22.61-38.33h6.14l22.85,38.33H376.1l-5-8.6H340.35Zm7.24-12.41h26.3l-13.27-22.48Z" transform="translate(-3.57 -5.96)"/><path d="M428.44,681.72H393.55V643.39h4.67v34.4h30.22Z" transform="translate(-3.57 -5.96)"/><path d="M502.16,660v3.81H470.09v14h33.67v3.81H465.42V643.26h38v3.94h-33.3v12.65h32.07Z" transform="translate(-3.57 -5.96)"/><path d="M555.85,648.42a16.39,16.39,0,0,0-4.42-1,73.39,73.39,0,0,0-8.11-.37h-1.6c-2.58,0-5.16.13-7.86.37a23,23,0,0,0-5.9,1.11,3.79,3.79,0,0,0-2.33,2.21,9.38,9.38,0,0,0-.49,3.32c0,2.33.61,3.93,2,4.79s3.2,1.23,5.65,1.23h17.33c1.23,0,3.07.24,5.53.49a10,10,0,0,1,6,2.58c1.47,1.47,2.21,3.93,2.21,7.49a13.05,13.05,0,0,1-1.11,5.78,6.8,6.8,0,0,1-3.68,3.44,21.42,21.42,0,0,1-6.27,1.47,80.64,80.64,0,0,1-8.11.37H541.6c-2.83,0-5,0-6.51-.12a44.64,44.64,0,0,1-6.64-.74,9.56,9.56,0,0,1-6.39-3.07q-1.84-2.58-1.84-8.85h4.67v.86a14,14,0,0,0,.49,4.55,4.17,4.17,0,0,0,2.83,2.21,24.13,24.13,0,0,0,6,.86c2.58.12,5,.25,7.49.25a78.41,78.41,0,0,0,10.08-.5c2.7-.36,4.54-1,5.65-2s1.47-2.58,1.47-4.79c0-2.83-.61-4.55-2-5.29s-3.44-1.1-6.51-1.1h-8.73l-10.32-.25c-3.56,0-6.39-.74-8.35-2.09s-2.95-3.68-2.95-7a14.67,14.67,0,0,1,1.23-6.51,7.21,7.21,0,0,1,4.3-3.69,28,28,0,0,1,7.12-1.47c2.71-.25,5.78-.37,9.09-.37,2.83,0,4.8,0,6,.12s3.31.25,6,.49a9.08,9.08,0,0,1,6.38,3.08c1.48,1.72,2.22,4.3,2.22,7.86h-4.67a12,12,0,0,0-.62-4.18C557.2,649.41,556.59,648.79,555.85,648.42Z" transform="translate(-3.57 -5.96)"/><path d="M594.55,681.72v-34.4H575.26v-3.93h43.38v3.93H599.22v34.4Z" transform="translate(-3.57 -5.96)"/><path d="M630.55,681.72h-5.4l22.6-38.33h6.15l22.85,38.33h-5.28l-5-8.6H635.71Zm7.25-12.41h26.3l-13.27-22.48Z" transform="translate(-3.57 -5.96)"/><path d="M702.55,681.72v-34.4H683.26v-3.93h43.37v3.93H707.22v34.4Z" transform="translate(-3.57 -5.96)"/><path d="M776.27,660v3.81H744.2v14h33.67v3.81H739.53V643.26h38v3.94H744.2v12.65h32.07Z" transform="translate(-3.57 -5.96)"/></svg>